<?xml version="1.0" encoding="utf-8"?>
<!-- Generator: Adobe Illustrator 17.0.0, SVG Export Plug-In . SVG Version: 6.00 Build 0)  -->
<!DOCTYPE svg PUBLIC "-//W3C//DTD SVG 1.1//EN" "http://www.w3.org/Graphics/SVG/1.1/DTD/svg11.dtd">
<svg version="1.1" id="Layer_1" xmlns="http://www.w3.org/2000/svg" xmlns:xlink="http://www.w3.org/1999/xlink" x="0px" y="0px"
	 width="127.843px" height="130.965px" viewBox="0 0 127.843 130.965" enable-background="new 0 0 127.843 130.965"
	 xml:space="preserve">
<g>
	
		<rect x="5.165" y="6.349" fill="none" stroke="#000000" stroke-width="10.3308" stroke-miterlimit="10" width="117.513" height="119.45"/>
</g>
<line stroke="#FFFFFF" stroke-width="12.9135" stroke-miterlimit="10" x1="43.046" y1="6.457" x2="86.306" y2="6.457"/>
<line fill="#FFFFFF" stroke="#000000" stroke-width="9.74" stroke-miterlimit="10" x1="7.981" y1="59.845" x2="45.87" y2="59.845"/>
<g>
	<path d="M52.36,44.163h6.25c2.755,0,4.484,1.142,5.19,3.425c0.447,1.436,0.671,3.113,0.671,5.032s-0.053,3.36-0.158,4.326
		c-0.235,2.118-0.795,3.663-1.678,4.634s-2.225,1.457-4.025,1.457h-2.595v12.2H52.36V44.163z M60.817,52.938
		c0-2.13-0.168-3.643-0.503-4.538c-0.336-0.894-0.998-1.342-1.986-1.342h-2.312V60h2.225c1.035,0,1.724-0.453,2.065-1.359
		c0.341-0.906,0.512-2.607,0.512-5.103V52.938z"/>
	<path d="M68.073,44.163h3.655v28.054h5.737v3.019h-9.393V44.163z"/>
	<path d="M83.98,44.163h4.396l5.138,31.073h-3.443l-0.882-5.932h-5.633l-0.812,5.932h-3.479L83.98,44.163z M83.962,66.338h4.767
		l-2.453-16.419h-0.054L83.962,66.338z"/>
	<path d="M106.808,44.163h3.231v31.073h-2.684l-6.975-21.328l0.212,7.839v13.489h-3.372V44.163h2.755l7.203,21.151l-0.371-8.986
		V44.163z"/>
</g>
</svg>
