<?xml version="1.0" encoding="utf-8"?>
<!-- Generator: Adobe Illustrator 17.0.0, SVG Export Plug-In . SVG Version: 6.00 Build 0)  -->
<!DOCTYPE svg PUBLIC "-//W3C//DTD SVG 1.1//EN" "http://www.w3.org/Graphics/SVG/1.1/DTD/svg11.dtd">
<svg version="1.1" id="Layer_1" xmlns="http://www.w3.org/2000/svg" xmlns:xlink="http://www.w3.org/1999/xlink" x="0px" y="0px"
	 width="127.203px" height="130.195px" viewBox="434.117 -291.201 127.203 130.195"
	 enable-background="new 434.117 -291.201 127.203 130.195" xml:space="preserve">
<polyline fill="none" stroke="#020000" stroke-width="7" stroke-miterlimit="10" points="518.417,-287.701 557.82,-287.701 
	557.82,-164.506 437.617,-164.506 437.617,-287.701 482.506,-287.701 "/>
<line fill="none" stroke="#020000" stroke-width="7" stroke-miterlimit="10" x1="436.121" y1="-232.837" x2="476.521" y2="-232.837"/>
<g>
	<path d="M482.452-253.18h6.914c3.047,0,4.961,1.263,5.742,3.789c0.495,1.589,0.742,3.444,0.742,5.566
		c0,2.123-0.059,3.718-0.176,4.785c-0.261,2.344-0.879,4.053-1.855,5.127s-2.461,1.611-4.453,1.611h-2.871v13.496h-4.043V-253.18z
		 M491.808-243.473c0-2.356-0.186-4.03-0.557-5.02c-0.371-0.989-1.104-1.484-2.197-1.484h-2.559v14.316h2.461
		c1.146,0,1.907-0.501,2.285-1.504c0.378-1.002,0.566-2.884,0.566-5.645V-243.473z"/>
	<path d="M499.835-253.18h4.043v31.035h6.348v3.34h-10.391V-253.18z"/>
	<path d="M517.433-253.18h4.863l5.684,34.375h-3.809l-0.977-6.562h-6.23l-0.898,6.562h-3.848L517.433-253.18z M517.413-228.648
		h5.273l-2.715-18.164h-0.059L517.413-228.648z"/>
	<path d="M542.687-253.18h3.574v34.375h-2.969l-7.715-23.594l0.234,8.672v14.922h-3.73v-34.375h3.047l7.969,23.398l-0.41-9.941
		V-253.18z"/>
</g>
</svg>
